<svg width="23" height="23" viewBox="0 0 23 23" fill="none" xmlns="http://www.w3.org/2000/svg">
<mask id="mask0_33_60" style="mask-type:alpha" maskUnits="userSpaceOnUse" x="0" y="0" width="23" height="23">
<rect width="23" height="23" fill="#D9D9D9"/>
</mask>
<g mask="url(#mask0_33_60)">
<path d="M13.4165 15.3334H15.3332V13.4167H17.2498V11.5H15.3332V9.58337H13.4165V11.5H11.4998V13.4167H13.4165V15.3334ZM3.83317 19.1667C3.30609 19.1667 2.85487 18.979 2.47952 18.6037C2.10418 18.2283 1.9165 17.7771 1.9165 17.25V5.75004C1.9165 5.22296 2.10418 4.77174 2.47952 4.39639C2.85487 4.02105 3.30609 3.83337 3.83317 3.83337H9.58317L11.4998 5.75004H19.1665C19.6936 5.75004 20.1448 5.93771 20.5201 6.31306C20.8955 6.68841 21.0832 7.13962 21.0832 7.66671V17.25C21.0832 17.7771 20.8955 18.2283 20.5201 18.6037C20.1448 18.979 19.6936 19.1667 19.1665 19.1667H3.83317ZM3.83317 17.25H19.1665V7.66671H10.7092L8.79255 5.75004H3.83317V17.25Z" fill="#1C1B1F"/>
</g>
</svg>
