<svg width="23" height="23" viewBox="0 0 23 23" fill="none" xmlns="http://www.w3.org/2000/svg">
<mask id="mask0_7_2669" style="mask-type:alpha" maskUnits="userSpaceOnUse" x="0" y="0" width="23" height="23">
<rect width="23" height="23" fill="#D9D9D9"/>
</mask>
<g mask="url(#mask0_7_2669)">
<path d="M13.417 15.3333H15.3337V13.4166H17.2503V11.4999H15.3337V9.58325H13.417V11.4999H11.5003V13.4166H13.417V15.3333ZM3.83366 19.1666C3.30658 19.1666 2.85536 18.9789 2.48001 18.6036C2.10467 18.2282 1.91699 17.777 1.91699 17.2499V5.74992C1.91699 5.22284 2.10467 4.77162 2.48001 4.39627C2.85536 4.02093 3.30658 3.83325 3.83366 3.83325H9.58366L11.5003 5.74992H19.167C19.6941 5.74992 20.1453 5.93759 20.5206 6.31294C20.896 6.68829 21.0837 7.1395 21.0837 7.66659V17.2499C21.0837 17.777 20.896 18.2282 20.5206 18.6036C20.1453 18.9789 19.6941 19.1666 19.167 19.1666H3.83366Z" fill="#292A2B"/>
</g>
</svg>
