<svg width="431" height="419" viewBox="0 0 431 419" fill="none" xmlns="http://www.w3.org/2000/svg">
<g filter="url(#filter0_d_3_277)">
<path d="M224.549 345.873C220.186 356.135 205.641 356.135 201.278 345.873L140.422 202.753C139.077 199.591 139.077 196.019 140.422 192.857L201.278 49.7368C205.641 39.4752 220.186 39.4751 224.549 49.7368L285.405 192.857C286.75 196.019 286.75 199.591 285.405 202.753L224.549 345.873Z" fill="url(#paint0_linear_3_277)"/>
<path d="M224.549 345.873C220.186 356.135 205.641 356.135 201.278 345.873L140.422 202.753C139.077 199.591 139.077 196.019 140.422 192.857L201.278 49.7368C205.641 39.4752 220.186 39.4751 224.549 49.7368L285.405 192.857C286.75 196.019 286.75 199.591 285.405 202.753L224.549 345.873Z" fill="url(#paint1_linear_3_277)" fill-opacity="0.2"/>
<path d="M224.549 345.873C220.186 356.135 205.641 356.135 201.278 345.873L140.422 202.753C139.077 199.591 139.077 196.019 140.422 192.857L201.278 49.7368C205.641 39.4752 220.186 39.4751 224.549 49.7368L285.405 192.857C286.75 196.019 286.75 199.591 285.405 202.753L224.549 345.873Z" fill="url(#paint2_linear_3_277)" fill-opacity="0.2"/>
</g>
<rect x="233.414" y="394.04" width="40" height="72" rx="8" transform="rotate(-180 233.414 394.04)" fill="#D9D9D9"/>
<rect x="233.414" y="394.04" width="40" height="72" rx="8" transform="rotate(-180 233.414 394.04)" fill="url(#paint3_linear_3_277)"/>
<g filter="url(#filter1_d_3_277)">
<path d="M179.874 294.348C182.819 300.759 176.627 307.567 169.967 305.24L77.0676 272.795C75.0155 272.078 73.3434 270.557 72.4359 268.582L31.3534 179.167C28.4078 172.755 34.5998 165.948 41.2606 168.274L134.16 200.719C136.212 201.436 137.884 202.957 138.791 204.932L179.874 294.348Z" fill="url(#paint4_linear_3_277)"/>
<path d="M179.874 294.348C182.819 300.759 176.627 307.567 169.967 305.24L77.0676 272.795C75.0155 272.078 73.3434 270.557 72.4359 268.582L31.3534 179.167C28.4078 172.755 34.5998 165.948 41.2606 168.274L134.16 200.719C136.212 201.436 137.884 202.957 138.791 204.932L179.874 294.348Z" fill="url(#paint5_linear_3_277)" fill-opacity="0.2"/>
<path d="M179.874 294.348C182.819 300.759 176.627 307.567 169.967 305.24L77.0676 272.795C75.0155 272.078 73.3434 270.557 72.4359 268.582L31.3534 179.167C28.4078 172.755 34.5998 165.948 41.2606 168.274L134.16 200.719C136.212 201.436 137.884 202.957 138.791 204.932L179.874 294.348Z" fill="url(#paint6_linear_3_277)" fill-opacity="0.2"/>
</g>
<g filter="url(#filter2_d_3_277)">
<path d="M190.442 329.219C194.745 329.902 196.122 335.415 192.646 338.04L144.157 374.661C143.086 375.47 141.732 375.808 140.406 375.598L80.3921 366.081C76.0892 365.399 74.712 359.886 78.1886 357.26L126.678 320.641C127.749 319.832 129.103 319.493 130.428 319.704L190.442 329.219Z" fill="url(#paint7_linear_3_277)"/>
<path d="M190.442 329.219C194.745 329.902 196.122 335.415 192.646 338.04L144.157 374.661C143.086 375.47 141.732 375.808 140.406 375.598L80.3921 366.081C76.0892 365.399 74.712 359.886 78.1886 357.26L126.678 320.641C127.749 319.832 129.103 319.493 130.428 319.704L190.442 329.219Z" fill="url(#paint8_linear_3_277)" fill-opacity="0.2"/>
<path d="M190.442 329.219C194.745 329.902 196.122 335.415 192.646 338.04L144.157 374.661C143.086 375.47 141.732 375.808 140.406 375.598L80.3921 366.081C76.0892 365.399 74.712 359.886 78.1886 357.26L126.678 320.641C127.749 319.832 129.103 319.493 130.428 319.704L190.442 329.219Z" fill="url(#paint9_linear_3_277)" fill-opacity="0.2"/>
</g>
<g filter="url(#filter3_d_3_277)">
<path d="M209.728 327.866C209.616 334.921 201.091 338.387 196.088 333.413L126.308 264.032C124.767 262.499 123.916 260.405 123.95 258.232L125.508 159.842C125.619 152.788 134.144 149.321 139.147 154.296L208.927 223.677C210.468 225.209 211.32 227.303 211.285 229.476L209.728 327.866Z" fill="url(#paint10_linear_3_277)"/>
<path d="M209.728 327.866C209.616 334.921 201.091 338.387 196.088 333.413L126.308 264.032C124.767 262.499 123.916 260.405 123.95 258.232L125.508 159.842C125.619 152.788 134.144 149.321 139.147 154.296L208.927 223.677C210.468 225.209 211.32 227.303 211.285 229.476L209.728 327.866Z" fill="url(#paint11_linear_3_277)" fill-opacity="0.2"/>
<path d="M209.728 327.866C209.616 334.921 201.091 338.387 196.088 333.413L126.308 264.032C124.767 262.499 123.916 260.405 123.95 258.232L125.508 159.842C125.619 152.788 134.144 149.321 139.147 154.296L208.927 223.677C210.468 225.209 211.32 227.303 211.285 229.476L209.728 327.866Z" fill="url(#paint12_linear_3_277)" fill-opacity="0.2"/>
</g>
<g filter="url(#filter4_d_3_277)">
<path d="M184.872 330.519C188.944 334.45 186.303 341.343 180.648 341.548L101.767 344.41C100.024 344.473 98.3312 343.824 97.0768 342.613L40.292 287.788C36.2206 283.857 38.861 276.963 44.5167 276.758L123.397 273.897C125.14 273.834 126.833 274.483 128.087 275.694L184.872 330.519Z" fill="url(#paint13_linear_3_277)"/>
<path d="M184.872 330.519C188.944 334.45 186.303 341.343 180.648 341.548L101.767 344.41C100.024 344.473 98.3312 343.824 97.0768 342.613L40.292 287.788C36.2206 283.857 38.861 276.963 44.5167 276.758L123.397 273.897C125.14 273.834 126.833 274.483 128.087 275.694L184.872 330.519Z" fill="url(#paint14_linear_3_277)" fill-opacity="0.2"/>
<path d="M184.872 330.519C188.944 334.45 186.303 341.343 180.648 341.548L101.767 344.41C100.024 344.473 98.3312 343.824 97.0768 342.613L40.292 287.788C36.2206 283.857 38.861 276.963 44.5167 276.758L123.397 273.897C125.14 273.834 126.833 274.483 128.087 275.694L184.872 330.519Z" fill="url(#paint15_linear_3_277)" fill-opacity="0.2"/>
</g>
<g filter="url(#filter5_d_3_277)">
<path d="M250.362 294.348C247.416 300.759 253.608 307.567 260.269 305.24L353.168 272.795C355.22 272.078 356.892 270.557 357.8 268.582L398.882 179.167C401.828 172.755 395.636 165.948 388.975 168.274L296.076 200.719C294.024 201.436 292.352 202.957 291.444 204.932L250.362 294.348Z" fill="url(#paint16_linear_3_277)"/>
<path d="M250.362 294.348C247.416 300.759 253.608 307.567 260.269 305.24L353.168 272.795C355.22 272.078 356.892 270.557 357.8 268.582L398.882 179.167C401.828 172.755 395.636 165.948 388.975 168.274L296.076 200.719C294.024 201.436 292.352 202.957 291.444 204.932L250.362 294.348Z" fill="url(#paint17_linear_3_277)" fill-opacity="0.2"/>
<path d="M250.362 294.348C247.416 300.759 253.608 307.567 260.269 305.24L353.168 272.795C355.22 272.078 356.892 270.557 357.8 268.582L398.882 179.167C401.828 172.755 395.636 165.948 388.975 168.274L296.076 200.719C294.024 201.436 292.352 202.957 291.444 204.932L250.362 294.348Z" fill="url(#paint18_linear_3_277)" fill-opacity="0.2"/>
</g>
<g filter="url(#filter6_d_3_277)">
<path d="M235.793 329.219C231.49 329.902 230.113 335.415 233.59 338.04L282.079 374.661C283.15 375.47 284.504 375.808 285.829 375.598L345.843 366.081C350.146 365.399 351.523 359.886 348.047 357.26L299.558 320.641C298.487 319.832 297.133 319.493 295.807 319.704L235.793 329.219Z" fill="url(#paint19_linear_3_277)"/>
<path d="M235.793 329.219C231.49 329.902 230.113 335.415 233.59 338.04L282.079 374.661C283.15 375.47 284.504 375.808 285.829 375.598L345.843 366.081C350.146 365.399 351.523 359.886 348.047 357.26L299.558 320.641C298.487 319.832 297.133 319.493 295.807 319.704L235.793 329.219Z" fill="url(#paint20_linear_3_277)" fill-opacity="0.2"/>
<path d="M235.793 329.219C231.49 329.902 230.113 335.415 233.59 338.04L282.079 374.661C283.15 375.47 284.504 375.808 285.829 375.598L345.843 366.081C350.146 365.399 351.523 359.886 348.047 357.26L299.558 320.641C298.487 319.832 297.133 319.493 295.807 319.704L235.793 329.219Z" fill="url(#paint21_linear_3_277)" fill-opacity="0.2"/>
</g>
<g filter="url(#filter7_d_3_277)">
<path d="M219.508 324.866C219.619 331.921 228.144 335.387 233.147 330.413L302.927 261.032C304.469 259.499 305.32 257.405 305.286 255.232L303.728 156.842C303.616 149.788 295.092 146.321 290.088 151.296L220.308 220.677C218.767 222.209 217.916 224.303 217.95 226.476L219.508 324.866Z" fill="url(#paint22_linear_3_277)"/>
<path d="M219.508 324.866C219.619 331.921 228.144 335.387 233.147 330.413L302.927 261.032C304.469 259.499 305.32 257.405 305.286 255.232L303.728 156.842C303.616 149.788 295.092 146.321 290.088 151.296L220.308 220.677C218.767 222.209 217.916 224.303 217.95 226.476L219.508 324.866Z" fill="url(#paint23_linear_3_277)" fill-opacity="0.2"/>
<path d="M219.508 324.866C219.619 331.921 228.144 335.387 233.147 330.413L302.927 261.032C304.469 259.499 305.32 257.405 305.286 255.232L303.728 156.842C303.616 149.788 295.092 146.321 290.088 151.296L220.308 220.677C218.767 222.209 217.916 224.303 217.95 226.476L219.508 324.866Z" fill="url(#paint24_linear_3_277)" fill-opacity="0.2"/>
</g>
<g filter="url(#filter8_d_3_277)">
<path d="M242.363 330.519C238.292 334.45 240.932 341.343 246.588 341.548L325.469 344.41C327.211 344.473 328.904 343.824 330.159 342.613L386.944 287.788C391.015 283.857 388.374 276.963 382.719 276.758L303.838 273.897C302.096 273.834 300.403 274.483 299.148 275.694L242.363 330.519Z" fill="url(#paint25_linear_3_277)"/>
<path d="M242.363 330.519C238.292 334.45 240.932 341.343 246.588 341.548L325.469 344.41C327.211 344.473 328.904 343.824 330.159 342.613L386.944 287.788C391.015 283.857 388.374 276.963 382.719 276.758L303.838 273.897C302.096 273.834 300.403 274.483 299.148 275.694L242.363 330.519Z" fill="url(#paint26_linear_3_277)" fill-opacity="0.2"/>
<path d="M242.363 330.519C238.292 334.45 240.932 341.343 246.588 341.548L325.469 344.41C327.211 344.473 328.904 343.824 330.159 342.613L386.944 287.788C391.015 283.857 388.374 276.963 382.719 276.758L303.838 273.897C302.096 273.834 300.403 274.483 299.148 275.694L242.363 330.519Z" fill="url(#paint27_linear_3_277)" fill-opacity="0.2"/>
</g>
<g filter="url(#filter9_d_3_277)">
<path d="M209.728 327.866C209.616 334.921 201.091 338.387 196.088 333.413L126.308 264.032C124.767 262.499 123.916 260.405 123.95 258.232L125.508 159.842C125.619 152.788 134.144 149.321 139.147 154.296L208.927 223.677C210.468 225.209 211.32 227.303 211.285 229.476L209.728 327.866Z" fill="url(#paint28_linear_3_277)"/>
<path d="M209.728 327.866C209.616 334.921 201.091 338.387 196.088 333.413L126.308 264.032C124.767 262.499 123.916 260.405 123.95 258.232L125.508 159.842C125.619 152.788 134.144 149.321 139.147 154.296L208.927 223.677C210.468 225.209 211.32 227.303 211.285 229.476L209.728 327.866Z" fill="url(#paint29_linear_3_277)" fill-opacity="0.2"/>
<path d="M209.728 327.866C209.616 334.921 201.091 338.387 196.088 333.413L126.308 264.032C124.767 262.499 123.916 260.405 123.95 258.232L125.508 159.842C125.619 152.788 134.144 149.321 139.147 154.296L208.927 223.677C210.468 225.209 211.32 227.303 211.285 229.476L209.728 327.866Z" fill="url(#paint30_linear_3_277)" fill-opacity="0.2"/>
</g>
<g filter="url(#filter10_d_3_277)">
<path d="M184.872 330.519C188.944 334.45 186.303 341.343 180.648 341.548L101.767 344.41C100.024 344.473 98.3312 343.824 97.0768 342.613L40.292 287.788C36.2206 283.857 38.861 276.963 44.5167 276.758L123.397 273.897C125.14 273.834 126.833 274.483 128.087 275.694L184.872 330.519Z" fill="url(#paint31_linear_3_277)"/>
<path d="M184.872 330.519C188.944 334.45 186.303 341.343 180.648 341.548L101.767 344.41C100.024 344.473 98.3312 343.824 97.0768 342.613L40.292 287.788C36.2206 283.857 38.861 276.963 44.5167 276.758L123.397 273.897C125.14 273.834 126.833 274.483 128.087 275.694L184.872 330.519Z" fill="url(#paint32_linear_3_277)" fill-opacity="0.2"/>
<path d="M184.872 330.519C188.944 334.45 186.303 341.343 180.648 341.548L101.767 344.41C100.024 344.473 98.3312 343.824 97.0768 342.613L40.292 287.788C36.2206 283.857 38.861 276.963 44.5167 276.758L123.397 273.897C125.14 273.834 126.833 274.483 128.087 275.694L184.872 330.519Z" fill="url(#paint33_linear_3_277)" fill-opacity="0.2"/>
</g>
<g filter="url(#filter11_d_3_277)">
<path d="M219.508 324.866C219.619 331.921 228.144 335.387 233.147 330.413L302.927 261.032C304.469 259.499 305.32 257.405 305.286 255.232L303.728 156.842C303.616 149.788 295.092 146.321 290.088 151.296L220.308 220.677C218.767 222.209 217.916 224.303 217.95 226.476L219.508 324.866Z" fill="url(#paint34_linear_3_277)"/>
<path d="M219.508 324.866C219.619 331.921 228.144 335.387 233.147 330.413L302.927 261.032C304.469 259.499 305.32 257.405 305.286 255.232L303.728 156.842C303.616 149.788 295.092 146.321 290.088 151.296L220.308 220.677C218.767 222.209 217.916 224.303 217.95 226.476L219.508 324.866Z" fill="url(#paint35_linear_3_277)" fill-opacity="0.2"/>
<path d="M219.508 324.866C219.619 331.921 228.144 335.387 233.147 330.413L302.927 261.032C304.469 259.499 305.32 257.405 305.286 255.232L303.728 156.842C303.616 149.788 295.092 146.321 290.088 151.296L220.308 220.677C218.767 222.209 217.916 224.303 217.95 226.476L219.508 324.866Z" fill="url(#paint36_linear_3_277)" fill-opacity="0.2"/>
</g>
<g filter="url(#filter12_d_3_277)">
<path d="M242.363 330.519C238.292 334.45 240.932 341.343 246.588 341.548L325.469 344.41C327.211 344.473 328.904 343.824 330.159 342.613L386.944 287.788C391.015 283.857 388.374 276.963 382.719 276.758L303.838 273.897C302.096 273.834 300.403 274.483 299.148 275.694L242.363 330.519Z" fill="url(#paint37_linear_3_277)"/>
<path d="M242.363 330.519C238.292 334.45 240.932 341.343 246.588 341.548L325.469 344.41C327.211 344.473 328.904 343.824 330.159 342.613L386.944 287.788C391.015 283.857 388.374 276.963 382.719 276.758L303.838 273.897C302.096 273.834 300.403 274.483 299.148 275.694L242.363 330.519Z" fill="url(#paint38_linear_3_277)" fill-opacity="0.2"/>
<path d="M242.363 330.519C238.292 334.45 240.932 341.343 246.588 341.548L325.469 344.41C327.211 344.473 328.904 343.824 330.159 342.613L386.944 287.788C391.015 283.857 388.374 276.963 382.719 276.758L303.838 273.897C302.096 273.834 300.403 274.483 299.148 275.694L242.363 330.519Z" fill="url(#paint39_linear_3_277)" fill-opacity="0.2"/>
</g>
<defs>
<filter id="filter0_d_3_277" x="91.0509" y="-0.000188828" width="243.725" height="408.254" filterUnits="userSpaceOnUse" color-interpolation-filters="sRGB">
<feFlood flood-opacity="0" result="BackgroundImageFix"/>
<feColorMatrix in="SourceAlpha" type="matrix" values="0 0 0 0 0 0 0 0 0 0 0 0 0 0 0 0 0 0 127 0" result="hardAlpha"/>
<feOffset dy="6.32189"/>
<feGaussianBlur stdDeviation="24.1812"/>
<feComposite in2="hardAlpha" operator="out"/>
<feColorMatrix type="matrix" values="0 0 0 0 0 0 0 0 0 0 0 0 0 0 0 0 0 0 1 0"/>
<feBlend mode="normal" in2="BackgroundImageFix" result="effect1_dropShadow_3_277"/>
<feBlend mode="normal" in="SourceGraphic" in2="effect1_dropShadow_3_277" result="shape"/>
</filter>
<filter id="filter1_d_3_277" x="-29.1865" y="109.44" width="269.6" height="262.633" filterUnits="userSpaceOnUse" color-interpolation-filters="sRGB">
<feFlood flood-opacity="0" result="BackgroundImageFix"/>
<feColorMatrix in="SourceAlpha" type="matrix" values="0 0 0 0 0 0 0 0 0 0 0 0 0 0 0 0 0 0 127 0" result="hardAlpha"/>
<feOffset dy="4"/>
<feGaussianBlur stdDeviation="15.3"/>
<feComposite in2="hardAlpha" operator="out"/>
<feColorMatrix type="matrix" values="0 0 0 0 0 0 0 0 0 0 0 0 0 0 0 0 0 0 1 0"/>
<feBlend mode="normal" in2="BackgroundImageFix" result="effect1_dropShadow_3_277"/>
<feBlend mode="normal" in="SourceGraphic" in2="effect1_dropShadow_3_277" result="shape"/>
</filter>
<filter id="filter2_d_3_277" x="50.5179" y="288.615" width="169.798" height="123.011" filterUnits="userSpaceOnUse" color-interpolation-filters="sRGB">
<feFlood flood-opacity="0" result="BackgroundImageFix"/>
<feColorMatrix in="SourceAlpha" type="matrix" values="0 0 0 0 0 0 0 0 0 0 0 0 0 0 0 0 0 0 127 0" result="hardAlpha"/>
<feOffset dy="2.47001"/>
<feGaussianBlur stdDeviation="9.44778"/>
<feComposite in2="hardAlpha" operator="out"/>
<feColorMatrix type="matrix" values="0 0 0 0 0 0 0 0 0 0 0 0 0 0 0 0 0 0 1 0"/>
<feBlend mode="normal" in2="BackgroundImageFix" result="effect1_dropShadow_3_277"/>
<feBlend mode="normal" in="SourceGraphic" in2="effect1_dropShadow_3_277" result="shape"/>
</filter>
<filter id="filter3_d_3_277" x="56.8135" y="108.44" width="221.608" height="278.828" filterUnits="userSpaceOnUse" color-interpolation-filters="sRGB">
<feFlood flood-opacity="0" result="BackgroundImageFix"/>
<feColorMatrix in="SourceAlpha" type="matrix" values="0 0 0 0 0 0 0 0 0 0 0 0 0 0 0 0 0 0 127 0" result="hardAlpha"/>
<feOffset dy="4"/>
<feGaussianBlur stdDeviation="15.3"/>
<feComposite in2="hardAlpha" operator="out"/>
<feColorMatrix type="matrix" values="0 0 0 0 0 0 0 0 0 0 0 0 0 0 0 0 0 0 1 0"/>
<feBlend mode="normal" in2="BackgroundImageFix" result="effect1_dropShadow_3_277"/>
<feBlend mode="normal" in="SourceGraphic" in2="effect1_dropShadow_3_277" result="shape"/>
</filter>
<filter id="filter4_d_3_277" x="0.867968" y="224.703" width="223.428" height="175.317" filterUnits="userSpaceOnUse" color-interpolation-filters="sRGB">
<feFlood flood-opacity="0" result="BackgroundImageFix"/>
<feColorMatrix in="SourceAlpha" type="matrix" values="0 0 0 0 0 0 0 0 0 0 0 0 0 0 0 0 0 0 127 0" result="hardAlpha"/>
<feOffset dy="3.20857"/>
<feGaussianBlur stdDeviation="12.2728"/>
<feComposite in2="hardAlpha" operator="out"/>
<feColorMatrix type="matrix" values="0 0 0 0 0 0 0 0 0 0 0 0 0 0 0 0 0 0 1 0"/>
<feBlend mode="normal" in2="BackgroundImageFix" result="effect1_dropShadow_3_277"/>
<feBlend mode="normal" in="SourceGraphic" in2="effect1_dropShadow_3_277" result="shape"/>
</filter>
<filter id="filter5_d_3_277" x="189.822" y="109.44" width="269.6" height="262.633" filterUnits="userSpaceOnUse" color-interpolation-filters="sRGB">
<feFlood flood-opacity="0" result="BackgroundImageFix"/>
<feColorMatrix in="SourceAlpha" type="matrix" values="0 0 0 0 0 0 0 0 0 0 0 0 0 0 0 0 0 0 127 0" result="hardAlpha"/>
<feOffset dy="4"/>
<feGaussianBlur stdDeviation="15.3"/>
<feComposite in2="hardAlpha" operator="out"/>
<feColorMatrix type="matrix" values="0 0 0 0 0 0 0 0 0 0 0 0 0 0 0 0 0 0 1 0"/>
<feBlend mode="normal" in2="BackgroundImageFix" result="effect1_dropShadow_3_277"/>
<feBlend mode="normal" in="SourceGraphic" in2="effect1_dropShadow_3_277" result="shape"/>
</filter>
<filter id="filter6_d_3_277" x="205.919" y="288.615" width="169.798" height="123.011" filterUnits="userSpaceOnUse" color-interpolation-filters="sRGB">
<feFlood flood-opacity="0" result="BackgroundImageFix"/>
<feColorMatrix in="SourceAlpha" type="matrix" values="0 0 0 0 0 0 0 0 0 0 0 0 0 0 0 0 0 0 127 0" result="hardAlpha"/>
<feOffset dy="2.47001"/>
<feGaussianBlur stdDeviation="9.44778"/>
<feComposite in2="hardAlpha" operator="out"/>
<feColorMatrix type="matrix" values="0 0 0 0 0 0 0 0 0 0 0 0 0 0 0 0 0 0 1 0"/>
<feBlend mode="normal" in2="BackgroundImageFix" result="effect1_dropShadow_3_277"/>
<feBlend mode="normal" in="SourceGraphic" in2="effect1_dropShadow_3_277" result="shape"/>
</filter>
<filter id="filter7_d_3_277" x="150.814" y="105.44" width="221.608" height="278.828" filterUnits="userSpaceOnUse" color-interpolation-filters="sRGB">
<feFlood flood-opacity="0" result="BackgroundImageFix"/>
<feColorMatrix in="SourceAlpha" type="matrix" values="0 0 0 0 0 0 0 0 0 0 0 0 0 0 0 0 0 0 127 0" result="hardAlpha"/>
<feOffset dy="4"/>
<feGaussianBlur stdDeviation="15.3"/>
<feComposite in2="hardAlpha" operator="out"/>
<feColorMatrix type="matrix" values="0 0 0 0 0 0 0 0 0 0 0 0 0 0 0 0 0 0 1 0"/>
<feBlend mode="normal" in2="BackgroundImageFix" result="effect1_dropShadow_3_277"/>
<feBlend mode="normal" in="SourceGraphic" in2="effect1_dropShadow_3_277" result="shape"/>
</filter>
<filter id="filter8_d_3_277" x="202.94" y="224.703" width="223.428" height="175.317" filterUnits="userSpaceOnUse" color-interpolation-filters="sRGB">
<feFlood flood-opacity="0" result="BackgroundImageFix"/>
<feColorMatrix in="SourceAlpha" type="matrix" values="0 0 0 0 0 0 0 0 0 0 0 0 0 0 0 0 0 0 127 0" result="hardAlpha"/>
<feOffset dy="3.20857"/>
<feGaussianBlur stdDeviation="12.2728"/>
<feComposite in2="hardAlpha" operator="out"/>
<feColorMatrix type="matrix" values="0 0 0 0 0 0 0 0 0 0 0 0 0 0 0 0 0 0 1 0"/>
<feBlend mode="normal" in2="BackgroundImageFix" result="effect1_dropShadow_3_277"/>
<feBlend mode="normal" in="SourceGraphic" in2="effect1_dropShadow_3_277" result="shape"/>
</filter>
<filter id="filter9_d_3_277" x="56.8135" y="108.44" width="221.608" height="278.828" filterUnits="userSpaceOnUse" color-interpolation-filters="sRGB">
<feFlood flood-opacity="0" result="BackgroundImageFix"/>
<feColorMatrix in="SourceAlpha" type="matrix" values="0 0 0 0 0 0 0 0 0 0 0 0 0 0 0 0 0 0 127 0" result="hardAlpha"/>
<feOffset dy="4"/>
<feGaussianBlur stdDeviation="15.3"/>
<feComposite in2="hardAlpha" operator="out"/>
<feColorMatrix type="matrix" values="0 0 0 0 0 0 0 0 0 0 0 0 0 0 0 0 0 0 1 0"/>
<feBlend mode="normal" in2="BackgroundImageFix" result="effect1_dropShadow_3_277"/>
<feBlend mode="normal" in="SourceGraphic" in2="effect1_dropShadow_3_277" result="shape"/>
</filter>
<filter id="filter10_d_3_277" x="0.867968" y="224.703" width="223.428" height="175.317" filterUnits="userSpaceOnUse" color-interpolation-filters="sRGB">
<feFlood flood-opacity="0" result="BackgroundImageFix"/>
<feColorMatrix in="SourceAlpha" type="matrix" values="0 0 0 0 0 0 0 0 0 0 0 0 0 0 0 0 0 0 127 0" result="hardAlpha"/>
<feOffset dy="3.20857"/>
<feGaussianBlur stdDeviation="12.2728"/>
<feComposite in2="hardAlpha" operator="out"/>
<feColorMatrix type="matrix" values="0 0 0 0 0 0 0 0 0 0 0 0 0 0 0 0 0 0 1 0"/>
<feBlend mode="normal" in2="BackgroundImageFix" result="effect1_dropShadow_3_277"/>
<feBlend mode="normal" in="SourceGraphic" in2="effect1_dropShadow_3_277" result="shape"/>
</filter>
<filter id="filter11_d_3_277" x="150.814" y="105.44" width="221.608" height="278.828" filterUnits="userSpaceOnUse" color-interpolation-filters="sRGB">
<feFlood flood-opacity="0" result="BackgroundImageFix"/>
<feColorMatrix in="SourceAlpha" type="matrix" values="0 0 0 0 0 0 0 0 0 0 0 0 0 0 0 0 0 0 127 0" result="hardAlpha"/>
<feOffset dy="4"/>
<feGaussianBlur stdDeviation="15.3"/>
<feComposite in2="hardAlpha" operator="out"/>
<feColorMatrix type="matrix" values="0 0 0 0 0 0 0 0 0 0 0 0 0 0 0 0 0 0 1 0"/>
<feBlend mode="normal" in2="BackgroundImageFix" result="effect1_dropShadow_3_277"/>
<feBlend mode="normal" in="SourceGraphic" in2="effect1_dropShadow_3_277" result="shape"/>
</filter>
<filter id="filter12_d_3_277" x="202.94" y="224.703" width="223.428" height="175.317" filterUnits="userSpaceOnUse" color-interpolation-filters="sRGB">
<feFlood flood-opacity="0" result="BackgroundImageFix"/>
<feColorMatrix in="SourceAlpha" type="matrix" values="0 0 0 0 0 0 0 0 0 0 0 0 0 0 0 0 0 0 127 0" result="hardAlpha"/>
<feOffset dy="3.20857"/>
<feGaussianBlur stdDeviation="12.2728"/>
<feComposite in2="hardAlpha" operator="out"/>
<feColorMatrix type="matrix" values="0 0 0 0 0 0 0 0 0 0 0 0 0 0 0 0 0 0 1 0"/>
<feBlend mode="normal" in2="BackgroundImageFix" result="effect1_dropShadow_3_277"/>
<feBlend mode="normal" in="SourceGraphic" in2="effect1_dropShadow_3_277" result="shape"/>
</filter>
<linearGradient id="paint0_linear_3_277" x1="212.914" y1="353.569" x2="212.914" y2="145.883" gradientUnits="userSpaceOnUse">
<stop stop-color="#762D00"/>
<stop offset="1" stop-color="#E9580A"/>
</linearGradient>
<linearGradient id="paint1_linear_3_277" x1="212.914" y1="353.569" x2="212.914" y2="145.883" gradientUnits="userSpaceOnUse">
<stop offset="0.706731" stop-opacity="0"/>
<stop offset="0.754808"/>
<stop offset="1" stop-opacity="0"/>
</linearGradient>
<linearGradient id="paint2_linear_3_277" x1="109.071" y1="249.726" x2="316.757" y2="249.726" gradientUnits="userSpaceOnUse">
<stop offset="0.413462" stop-opacity="0"/>
<stop offset="0.495192"/>
<stop offset="0.586538" stop-opacity="0"/>
</linearGradient>
<linearGradient id="paint3_linear_3_277" x1="253.414" y1="466.04" x2="253.414" y2="418.04" gradientUnits="userSpaceOnUse">
<stop stop-color="#762D00"/>
<stop offset="1" stop-color="#E9580A"/>
</linearGradient>
<linearGradient id="paint4_linear_3_277" x1="178.523" y1="303.071" x2="81.3106" y2="214.653" gradientUnits="userSpaceOnUse">
<stop stop-color="#762D00"/>
<stop offset="1" stop-color="#E9580A"/>
</linearGradient>
<linearGradient id="paint5_linear_3_277" x1="178.523" y1="303.071" x2="81.3106" y2="214.653" gradientUnits="userSpaceOnUse">
<stop offset="0.706731" stop-opacity="0"/>
<stop offset="0.754808"/>
<stop offset="1" stop-opacity="0"/>
</linearGradient>
<linearGradient id="paint6_linear_3_277" x1="85.7076" y1="307.468" x2="174.126" y2="210.256" gradientUnits="userSpaceOnUse">
<stop offset="0.413462" stop-opacity="0"/>
<stop offset="0.495192"/>
<stop offset="0.586538" stop-opacity="0"/>
</linearGradient>
<linearGradient id="paint7_linear_3_277" x1="194.461" y1="332.901" x2="115.736" y2="352.567" gradientUnits="userSpaceOnUse">
<stop stop-color="#762D00"/>
<stop offset="1" stop-color="#E9580A"/>
</linearGradient>
<linearGradient id="paint8_linear_3_277" x1="194.461" y1="332.901" x2="115.736" y2="352.567" gradientUnits="userSpaceOnUse">
<stop offset="0.706731" stop-opacity="0"/>
<stop offset="0.754808"/>
<stop offset="1" stop-opacity="0"/>
</linearGradient>
<linearGradient id="paint9_linear_3_277" x1="164.931" y1="382.096" x2="145.266" y2="303.371" gradientUnits="userSpaceOnUse">
<stop offset="0.413462" stop-opacity="0"/>
<stop offset="0.495192"/>
<stop offset="0.586538" stop-opacity="0"/>
</linearGradient>
<linearGradient id="paint10_linear_3_277" x1="204.742" y1="335.15" x2="155.243" y2="213.422" gradientUnits="userSpaceOnUse">
<stop stop-color="#762D00"/>
<stop offset="1" stop-color="#E9580A"/>
</linearGradient>
<linearGradient id="paint11_linear_3_277" x1="204.742" y1="335.15" x2="155.243" y2="213.422" gradientUnits="userSpaceOnUse">
<stop offset="0.706731" stop-opacity="0"/>
<stop offset="0.754808"/>
<stop offset="1" stop-opacity="0"/>
</linearGradient>
<linearGradient id="paint12_linear_3_277" x1="119.129" y1="299.036" x2="240.857" y2="249.536" gradientUnits="userSpaceOnUse">
<stop offset="0.413462" stop-opacity="0"/>
<stop offset="0.495192"/>
<stop offset="0.586538" stop-opacity="0"/>
</linearGradient>
<linearGradient id="paint13_linear_3_277" x1="186.407" y1="337.431" x2="87.9736" y2="299.728" gradientUnits="userSpaceOnUse">
<stop stop-color="#762D00"/>
<stop offset="1" stop-color="#E9580A"/>
</linearGradient>
<linearGradient id="paint14_linear_3_277" x1="186.407" y1="337.431" x2="87.9736" y2="299.728" gradientUnits="userSpaceOnUse">
<stop offset="0.706731" stop-opacity="0"/>
<stop offset="0.754808"/>
<stop offset="1" stop-opacity="0"/>
</linearGradient>
<linearGradient id="paint15_linear_3_277" x1="118.339" y1="367.796" x2="156.042" y2="269.363" gradientUnits="userSpaceOnUse">
<stop offset="0.413462" stop-opacity="0"/>
<stop offset="0.495192"/>
<stop offset="0.586538" stop-opacity="0"/>
</linearGradient>
<linearGradient id="paint16_linear_3_277" x1="251.713" y1="303.071" x2="348.925" y2="214.653" gradientUnits="userSpaceOnUse">
<stop stop-color="#762D00"/>
<stop offset="1" stop-color="#E9580A"/>
</linearGradient>
<linearGradient id="paint17_linear_3_277" x1="251.713" y1="303.071" x2="348.925" y2="214.653" gradientUnits="userSpaceOnUse">
<stop offset="0.706731" stop-opacity="0"/>
<stop offset="0.754808"/>
<stop offset="1" stop-opacity="0"/>
</linearGradient>
<linearGradient id="paint18_linear_3_277" x1="344.528" y1="307.468" x2="256.11" y2="210.256" gradientUnits="userSpaceOnUse">
<stop offset="0.413462" stop-opacity="0"/>
<stop offset="0.495192"/>
<stop offset="0.586538" stop-opacity="0"/>
</linearGradient>
<linearGradient id="paint19_linear_3_277" x1="231.774" y1="332.901" x2="310.5" y2="352.567" gradientUnits="userSpaceOnUse">
<stop stop-color="#762D00"/>
<stop offset="1" stop-color="#E9580A"/>
</linearGradient>
<linearGradient id="paint20_linear_3_277" x1="231.774" y1="332.901" x2="310.5" y2="352.567" gradientUnits="userSpaceOnUse">
<stop offset="0.706731" stop-opacity="0"/>
<stop offset="0.754808"/>
<stop offset="1" stop-opacity="0"/>
</linearGradient>
<linearGradient id="paint21_linear_3_277" x1="261.304" y1="382.096" x2="280.97" y2="303.371" gradientUnits="userSpaceOnUse">
<stop offset="0.413462" stop-opacity="0"/>
<stop offset="0.495192"/>
<stop offset="0.586538" stop-opacity="0"/>
</linearGradient>
<linearGradient id="paint22_linear_3_277" x1="224.493" y1="332.15" x2="273.993" y2="210.422" gradientUnits="userSpaceOnUse">
<stop stop-color="#762D00"/>
<stop offset="1" stop-color="#E9580A"/>
</linearGradient>
<linearGradient id="paint23_linear_3_277" x1="224.493" y1="332.15" x2="273.993" y2="210.422" gradientUnits="userSpaceOnUse">
<stop offset="0.706731" stop-opacity="0"/>
<stop offset="0.754808"/>
<stop offset="1" stop-opacity="0"/>
</linearGradient>
<linearGradient id="paint24_linear_3_277" x1="310.107" y1="296.036" x2="188.379" y2="246.536" gradientUnits="userSpaceOnUse">
<stop offset="0.413462" stop-opacity="0"/>
<stop offset="0.495192"/>
<stop offset="0.586538" stop-opacity="0"/>
</linearGradient>
<linearGradient id="paint25_linear_3_277" x1="240.828" y1="337.431" x2="339.262" y2="299.728" gradientUnits="userSpaceOnUse">
<stop stop-color="#762D00"/>
<stop offset="1" stop-color="#E9580A"/>
</linearGradient>
<linearGradient id="paint26_linear_3_277" x1="240.828" y1="337.431" x2="339.262" y2="299.728" gradientUnits="userSpaceOnUse">
<stop offset="0.706731" stop-opacity="0"/>
<stop offset="0.754808"/>
<stop offset="1" stop-opacity="0"/>
</linearGradient>
<linearGradient id="paint27_linear_3_277" x1="308.896" y1="367.796" x2="271.193" y2="269.363" gradientUnits="userSpaceOnUse">
<stop offset="0.413462" stop-opacity="0"/>
<stop offset="0.495192"/>
<stop offset="0.586538" stop-opacity="0"/>
</linearGradient>
<linearGradient id="paint28_linear_3_277" x1="204.742" y1="335.15" x2="155.243" y2="213.422" gradientUnits="userSpaceOnUse">
<stop stop-color="#762D00"/>
<stop offset="1" stop-color="#E9580A"/>
</linearGradient>
<linearGradient id="paint29_linear_3_277" x1="204.742" y1="335.15" x2="155.243" y2="213.422" gradientUnits="userSpaceOnUse">
<stop offset="0.706731" stop-opacity="0"/>
<stop offset="0.754808"/>
<stop offset="1" stop-opacity="0"/>
</linearGradient>
<linearGradient id="paint30_linear_3_277" x1="119.129" y1="299.036" x2="240.857" y2="249.536" gradientUnits="userSpaceOnUse">
<stop offset="0.413462" stop-opacity="0"/>
<stop offset="0.495192"/>
<stop offset="0.586538" stop-opacity="0"/>
</linearGradient>
<linearGradient id="paint31_linear_3_277" x1="186.407" y1="337.431" x2="87.9736" y2="299.728" gradientUnits="userSpaceOnUse">
<stop stop-color="#762D00"/>
<stop offset="1" stop-color="#E9580A"/>
</linearGradient>
<linearGradient id="paint32_linear_3_277" x1="186.407" y1="337.431" x2="87.9736" y2="299.728" gradientUnits="userSpaceOnUse">
<stop offset="0.706731" stop-opacity="0"/>
<stop offset="0.754808"/>
<stop offset="1" stop-opacity="0"/>
</linearGradient>
<linearGradient id="paint33_linear_3_277" x1="118.339" y1="367.796" x2="156.042" y2="269.363" gradientUnits="userSpaceOnUse">
<stop offset="0.413462" stop-opacity="0"/>
<stop offset="0.495192"/>
<stop offset="0.586538" stop-opacity="0"/>
</linearGradient>
<linearGradient id="paint34_linear_3_277" x1="224.493" y1="332.15" x2="273.993" y2="210.422" gradientUnits="userSpaceOnUse">
<stop stop-color="#762D00"/>
<stop offset="1" stop-color="#E9580A"/>
</linearGradient>
<linearGradient id="paint35_linear_3_277" x1="224.493" y1="332.15" x2="273.993" y2="210.422" gradientUnits="userSpaceOnUse">
<stop offset="0.706731" stop-opacity="0"/>
<stop offset="0.754808"/>
<stop offset="1" stop-opacity="0"/>
</linearGradient>
<linearGradient id="paint36_linear_3_277" x1="310.107" y1="296.036" x2="188.379" y2="246.536" gradientUnits="userSpaceOnUse">
<stop offset="0.413462" stop-opacity="0"/>
<stop offset="0.495192"/>
<stop offset="0.586538" stop-opacity="0"/>
</linearGradient>
<linearGradient id="paint37_linear_3_277" x1="240.828" y1="337.431" x2="339.262" y2="299.728" gradientUnits="userSpaceOnUse">
<stop stop-color="#762D00"/>
<stop offset="1" stop-color="#E9580A"/>
</linearGradient>
<linearGradient id="paint38_linear_3_277" x1="240.828" y1="337.431" x2="339.262" y2="299.728" gradientUnits="userSpaceOnUse">
<stop offset="0.706731" stop-opacity="0"/>
<stop offset="0.754808"/>
<stop offset="1" stop-opacity="0"/>
</linearGradient>
<linearGradient id="paint39_linear_3_277" x1="308.896" y1="367.796" x2="271.193" y2="269.363" gradientUnits="userSpaceOnUse">
<stop offset="0.413462" stop-opacity="0"/>
<stop offset="0.495192"/>
<stop offset="0.586538" stop-opacity="0"/>
</linearGradient>
</defs>
</svg>
