<svg width="24" height="23" viewBox="0 0 24 23" fill="none" xmlns="http://www.w3.org/2000/svg">
<mask id="mask0_7_2691" style="mask-type:alpha" maskUnits="userSpaceOnUse" x="0" y="0" width="24" height="23">
<rect width="24" height="23" fill="#D9D9D9"/>
</mask>
<g mask="url(#mask0_7_2691)">
<path d="M12 22.0416L9 19.1666H5C4.45 19.1666 3.97917 18.979 3.5875 18.6036C3.19583 18.2283 3 17.777 3 17.25V3.83329C3 3.30621 3.19583 2.85499 3.5875 2.47965C3.97917 2.1043 4.45 1.91663 5 1.91663H19C19.55 1.91663 20.0208 2.1043 20.4125 2.47965C20.8042 2.85499 21 3.30621 21 3.83329V17.25C21 17.777 20.8042 18.2283 20.4125 18.6036C20.0208 18.979 19.55 19.1666 19 19.1666H15L12 22.0416ZM11.9 16.2916C12.25 16.2916 12.5458 16.1758 12.7875 15.9442C13.0292 15.7126 13.15 15.4291 13.15 15.0937C13.15 14.7583 13.0292 14.4748 12.7875 14.2432C12.5458 14.0116 12.25 13.8958 11.9 13.8958C11.55 13.8958 11.2542 14.0116 11.0125 14.2432C10.7708 14.4748 10.65 14.7583 10.65 15.0937C10.65 15.4291 10.7708 15.7126 11.0125 15.9442C11.2542 16.1758 11.55 16.2916 11.9 16.2916ZM11 12.602H12.85C12.85 12.3305 12.8625 12.0989 12.8875 11.9073C12.9125 11.7156 12.9667 11.5319 13.05 11.3562C13.1333 11.1805 13.2375 11.0168 13.3625 10.8651C13.4875 10.7133 13.6667 10.5257 13.9 10.302C14.4833 9.74301 14.8958 9.27583 15.1375 8.90048C15.3792 8.52513 15.5 8.09788 15.5 7.61871C15.5 6.77218 15.2 6.08937 14.6 5.57027C14 5.05117 13.1917 4.79163 12.175 4.79163C11.2583 4.79163 10.4792 5.00725 9.8375 5.4385C9.19583 5.86975 8.75 6.46871 8.5 7.23538L10.15 7.85829C10.2667 7.42704 10.5 7.07965 10.85 6.81611C11.2 6.55256 11.6083 6.42079 12.075 6.42079C12.525 6.42079 12.9 6.53659 13.2 6.76819C13.5 6.99979 13.65 7.30725 13.65 7.69058C13.65 7.96211 13.5583 8.24961 13.375 8.55308C13.1917 8.85656 12.8833 9.19197 12.45 9.55933C12.1667 9.78295 11.9375 10.0026 11.7625 10.2182C11.5875 10.4338 11.4417 10.6614 11.325 10.901C11.2083 11.1406 11.125 11.3921 11.075 11.6557C11.025 11.9192 11 12.2347 11 12.602Z" fill="#1C1B1F"/>
</g>
</svg>
