<svg width="24" height="23" viewBox="0 0 24 23" fill="none" xmlns="http://www.w3.org/2000/svg">
<mask id="mask0_7_2688" style="mask-type:alpha" maskUnits="userSpaceOnUse" x="0" y="0" width="24" height="23">
<rect width="24" height="23" fill="#D9D9D9"/>
</mask>
<g mask="url(#mask0_7_2688)">
<path d="M5 20.125C4.45 20.125 3.97917 19.9373 3.5875 19.562C3.19583 19.1866 3 18.7354 3 18.2083V4.79167C3 4.26458 3.19583 3.81337 3.5875 3.43802C3.97917 3.06267 4.45 2.875 5 2.875H19C19.55 2.875 20.0208 3.06267 20.4125 3.43802C20.8042 3.81337 21 4.26458 21 4.79167V18.2083C21 18.7354 20.8042 19.1866 20.4125 19.562C20.0208 19.9373 19.55 20.125 19 20.125H5ZM7 16.2917H14V14.375H7V16.2917ZM7 12.4583H17V10.5417H7V12.4583ZM7 8.625H17V6.70833H7V8.625Z" fill="#1C1B1F"/>
</g>
</svg>
