<svg width="23" height="23" viewBox="0 0 23 23" fill="none" xmlns="http://www.w3.org/2000/svg">
<mask id="mask0_7_2678" style="mask-type:alpha" maskUnits="userSpaceOnUse" x="0" y="0" width="23" height="23">
<rect width="23" height="23" fill="#D9D9D9"/>
</mask>
<g mask="url(#mask0_7_2678)">
<path d="M6.7085 20.125C6.18141 20.125 5.7302 19.9373 5.35485 19.562C4.9795 19.1866 4.79183 18.7354 4.79183 18.2083V5.75H3.8335V3.83333H8.62516V2.875H14.3752V3.83333H19.1668V5.75H18.2085V18.2083C18.2085 18.7354 18.0208 19.1866 17.6455 19.562C17.2701 19.9373 16.8189 20.125 16.2918 20.125H6.7085ZM16.2918 5.75H6.7085V18.2083H16.2918V5.75ZM8.62516 16.2917H10.5418V7.66667H8.62516V16.2917ZM12.4585 16.2917H14.3752V7.66667H12.4585V16.2917Z" fill="#292A2B"/>
</g>
</svg>
