<svg width="24" height="23" viewBox="0 0 24 23" fill="none" xmlns="http://www.w3.org/2000/svg">
<mask id="mask0_7_2685" style="mask-type:alpha" maskUnits="userSpaceOnUse" x="0" y="0" width="24" height="23">
<rect width="24" height="23" fill="#D9D9D9"/>
</mask>
<g mask="url(#mask0_7_2685)">
<path d="M5 20.125C4.45 20.125 3.97917 19.9373 3.5875 19.562C3.19583 19.1866 3 18.7354 3 18.2083V14.375H5V18.2083H9V20.125H5ZM15 20.125V18.2083H19V14.375H21V18.2083C21 18.7354 20.8042 19.1866 20.4125 19.562C20.0208 19.9373 19.55 20.125 19 20.125H15ZM3 8.625V4.79167C3 4.26458 3.19583 3.81337 3.5875 3.43802C3.97917 3.06267 4.45 2.875 5 2.875H9V4.79167H5V8.625H3ZM19 8.625V4.79167H15V2.875H19C19.55 2.875 20.0208 3.06267 20.4125 3.43802C20.8042 3.81337 21 4.26458 21 4.79167V8.625H19ZM12 14.375C11.1667 14.375 10.4583 14.0955 9.875 13.5365C9.29167 12.9774 9 12.2986 9 11.5C9 10.7014 9.29167 10.0226 9.875 9.46354C10.4583 8.90451 11.1667 8.625 12 8.625C12.8333 8.625 13.5417 8.90451 14.125 9.46354C14.7083 10.0226 15 10.7014 15 11.5C15 12.2986 14.7083 12.9774 14.125 13.5365C13.5417 14.0955 12.8333 14.375 12 14.375Z" fill="#292A2B"/>
</g>
</svg>
